#!OML:ASF X:\für Bonn\!DataBase\2005_08_12_Daniel\c3d\Daniel.ASF
:FULLY-SPECIFIED
:DEGREES
133
root 0.628835 14.4923 -0.940053 55.0947 -87.2172 -70.4889
lowerback 39.7107 -3.60747 6.35779
upperback 3.06008 -2.79535 -2.33944
thorax -16.475 -1.90361 -4.5607
lowerneck 5.67659 1.42868 -2.37007
upperneck -1.44174 1.71296 -0.348299
head -1.4189 0.872127 0.240406
rclavicle -2.38542e-015 -1.98785e-014
rhumerus 64.3163 3.69994 -95.6652
rradius 7.73537
rwrist 57.9779
rhand -18.1062 5.80974
rfingers 7.12502
rthumb 8.16783 -24.0124
lclavicle -2.38542e-015 -1.98785e-014
lhumerus 65.5124 4.03194 101.903
lradius 10.2391
lwrist -78.0549
lhand -14.0732 0.711786
lfingers 7.12502
lthumb 12.0585 30.3444
rfemur -26.0476 -20.4308 8.76022
rtibia 81.3432
rfoot -12.964 20.2431
rtoes -6.1969
lfemur -29.4453 17.0275 -3.79623
ltibia 80.8877
lfoot -22.8209 -23.28
ltoes 5.3717
134
root 0.608545 14.6684 -0.945328 54.3476 -87.1644 -69.4055
lowerback 39.099 -3.59607 6.36363
upperback 2.98516 -2.79434 -2.3193
thorax -16.3433 -1.89656 -4.55978
lowerneck 5.51799 1.44134 -2.36795
upperneck -1.21716 1.73744 -0.298618
head -1.31999 0.880797 0.256326
rclavicle -2.5345e-014 -6.36111e-015
rhumerus 64.2191 3.68958 -95.7873
rradius 7.53674
rwrist 57.8226
rhand -18.1292 5.69546
rfingers 7.12502
rthumb 8.14565 -24.1275
lclavicle -2.5345e-014 -6.36111e-015
lhumerus 65.5286 4.52866 103.054
lradius 10.0832
lwrist -79.4367
lhand -14.05 0.722073
lfingers 7.12502
lthumb 12.0809 30.3533
rfemur -24.9334 -19.8173 9.28523
rtibia 79.044
rfoot -13.1933 19.3842
rtoes -6.27699
lfemur -28.4331 16.1264 -4.2327
ltibia 78.7017
lfoot -22.9882 -22.3023
ltoes 5.08779
135
root 0.588041 14.8411 -0.950744 53.7747 -87.1194 -68.5206
lowerback 38.5459 -3.57546 6.34484
upperback 2.87853 -2.78444 -2.28387
thorax -16.2649 -1.88511 -4.53161
lowerneck 5.40948 1.45094 -2.3538
upperneck -0.986867 1.75557 -0.285588
head -1.2278 0.886806 0.258751
rclavicle 5.76476e-015 2.14687e-014
rhumerus 64.0896 3.70062 -95.8987
rradius 7.29681
rwrist 57.6972
rhand -18.211 5.62771
rfingers 7.12502
rthumb 8.06674 -24.1983
lclavicle 5.76476e-015 2.14687e-014
lhumerus 65.433 4.88834 103.83
lradius 9.98358
lwrist -80.2812
lhand -14.0331 0.800444
lfingers 7.12502
lthumb 12.0972 30.4307
rfemur -23.7958 -19.1851 9.79569
rtibia 76.7352
rfoot -13.5145 18.478
rtoes -6.59389
lfemur -27.4029 15.2367 -4.65294
ltibia 76.5279
lfoot -23.1727 -21.24
ltoes 4.74966
136
root 0.567083 15.0089 -0.957605 53.0617 -87.0842 -67.4947
lowerback 37.9709 -3.54794 6.29656
upperback 2.78994 -2.78222 -2.25364
thorax -16.1536 -1.87463 -4.49059
lowerneck 5.24994 1.46977 -2.34691
upperneck -0.748252 1.78795 -0.240264
head -1.12513 0.899445 0.272346
rclavicle 3.25013e-014 8.74653e-015
rhumerus 63.9542 3.7039 -96.0182
rradius 7.09022
rwrist 57.69
rhand -18.2824 5.53716
rfingers 7.12502
rthumb 7.99775 -24.2915
lclavicle 3.25013e-014 8.74653e-015
lhumerus 65.3506 5.26917 104.582
lradius 9.92028
lwrist -81.027
lhand -14.0444 0.86675
lfingers 7.12502
lthumb 12.0863 30.4977
rfemur -22.6669 -18.5509 10.2888
rtibia 74.424
rfoot -13.7778 17.5653
rtoes -6.92261
lfemur -26.3716 14.3763 -5.0577
ltibia 74.3533
lfoot -23.2441 -20.2271
ltoes 4.49737
137
root 0.545757 15.174 -0.964165 52.4639 -87.025 -66.5751
lowerback 37.3758 -3.51929 6.26882
upperback 2.69355 -2.76728 -2.20741
thorax -16.0382 -1.85944 -4.44925
lowerneck 5.16946 1.48222 -2.34333
upperneck -0.548231 1.80838 -0.2053
head -1.04855 0.906732 0.283032
rclavicle -1.35174e-014 -1.03368e-014
rhumerus 63.8228 3.69207 -96.113
rradius 6.86574
rwrist 57.7422
rhand -18.3773 5.43241
rfingers 7.12502
rthumb 7.90616 -24.3997
lclavicle -1.35174e-014 -1.03368e-014
lhumerus 65.1879 5.66529 105.347
lradius 9.97755
lwrist -81.6496
lhand -14.0699 0.827007
lfingers 7.12502
lthumb 12.0617 30.4594
rfemur -21.5524 -17.9392 10.8021
rtibia 72.101
rfoot -14.0757 16.5752
rtoes -7.32506
lfemur -25.3639 13.4772 -5.44331
ltibia 72.1913
lfoot -23.3 -19.1432
ltoes 4.16223
138
root 0.523598 15.3361 -0.972237 51.8037 -87.0053 -65.6168
lowerback 36.8361 -3.48263 6.19013
upperback 2.56554 -2.76061 -2.1759
thorax -15.9796 -1.84652 -4.39203
lowerneck 5.09318 1.50735 -2.35426
upperneck -0.294488 1.84506 -0.139386
head -0.956769 0.921087 0.305386
rclavicle -1.81888e-014 6.36111e-015
rhumerus 63.6141 3.67647 -96.2289
rradius 6.67189
rwrist 57.9141
rhand -18.483 5.32072
rfingers 7.12502
rthumb 7.80419 -24.5153
lclavicle -1.81888e-014 6.36111e-015
lhumerus 64.991 6.08305 106.089
lradius 10.0065
lwrist -82.1498
lhand -14.1789 0.855112
lfingers 7.12502
lthumb 11.9566 30.4936
rfemur -20.406 -17.3022 11.2636
rtibia 69.771
rfoot -14.3572 15.6062
rtoes -7.74856
lfemur -24.3211 12.5732 -5.86429
ltibia 70.0374
lfoot -23.3806 -17.9307
ltoes 3.66675
139
root 0.50183 15.4923 -0.979513 51.3868 -86.9689 -64.8962
lowerback 36.2082 -3.43987 6.13966
upperback 2.50216 -2.74046 -2.13739
thorax -15.9222 -1.82993 -4.35565
lowerneck 5.12507 1.52913 -2.38631
upperneck -0.0914797 1.8722 -0.0607755
head -0.900068 0.931006 0.334597
rclavicle -2.73329e-014 1.59028e-015
rhumerus 63.3573 3.64834 -96.3412
rradius 6.55628
rwrist 58.1784
rhand -18.5788 5.15174
rfingers 7.12502
rthumb 7.71174 -24.6876
lclavicle -2.73329e-014 1.59028e-015
lhumerus 64.6758 6.25028 106.26
lradius 10.097
lwrist -81.9113
lhand -14.3264 0.916953
lfingers 7.12502
lthumb 11.8144 30.5637
rfemur -19.2787 -16.6385 11.7493
rtibia 67.4389
rfoot -14.6376 14.5808
rtoes -8.20644
lfemur -23.3228 11.6506 -6.26752
ltibia 67.9318
lfoot -23.4792 -16.6367
ltoes 3.16873
140
root 0.479623 15.6418 -0.986814 50.5646 -86.958 -63.7823
lowerback 35.6517 -3.4052 6.04696
upperback 2.3711 -2.74175 -2.10474
thorax -15.8553 -1.81953 -4.28653
lowerneck 5.15077 1.56618 -2.42597
upperneck 0.123345 1.91875 0.00762452
head -0.838954 0.950571 0.361527
rclavicle 7.25564e-015 2.46493e-014
rhumerus 63.0367 3.65538 -96.4618
rradius 6.57216
rwrist 58.5036
rhand -18.568 5.02073
rfingers 7.12502
rthumb 7.72211 -24.8183
lclavicle 7.25564e-015 2.46493e-014
lhumerus 64.3974 6.49985 106.556
lradius 10.1999
lwrist -81.8086
lhand -14.4657 0.926815
lfingers 7.12502
lthumb 11.68 30.5812
rfemur -18.1489 -15.961 12.1848
rtibia 65.1304
rfoot -14.9064 13.5433
rtoes -8.66378
lfemur -22.339 10.6976 -6.70497
ltibia 65.8729
lfoot -23.566 -15.2794
ltoes 2.54333
141
root 0.457953 15.7845 -0.99431 50.1959 -86.9465 -63.1422
lowerback 35.1303 -3.36301 5.95292
upperback 2.21979 -2.72846 -2.06125
thorax -15.8206 -1.8033 -4.2103
lowerneck 5.21045 1.60154 -2.49742
upperneck 0.362196 1.95968 0.095569
head -0.776872 0.96661 0.399735
rclavicle 4.96962e-015 -2.14687e-014
rhumerus 62.6629 3.65824 -96.5737
rradius 6.6372
rwrist 58.7995
rhand -18.567 4.83437
rfingers 7.12502
rthumb 7.72312 -25.0046
lclavicle 4.96962e-015 -2.14687e-014
lhumerus 64.0551 6.71484 106.742
lradius 10.3193
lwrist -81.6152
lhand -14.6984 0.934345
lfingers 7.12502
lthumb 11.4556 30.6014
rfemur -17.0143 -15.2254 12.6301
rtibia 62.8347
rfoot -15.1732 12.4711
rtoes -9.05773
lfemur -21.3612 9.70896 -7.10604
ltibia 63.8632
lfoot -23.6241 -13.9147
ltoes 1.97489
142
root 0.436221 15.9207 -1.00059 49.2728 -86.9427 -61.9417
lowerback 34.5793 -3.32448 5.87138
upperback 2.07631 -2.7204 -2.04039
thorax -15.7639 -1.7905 -4.16425
lowerneck 5.27953 1.62888 -2.5285
upperneck 0.577893 1.99151 0.170956
head -0.722997 0.978508 0.427452
rclavicle 6.06293e-015 1.90833e-014
rhumerus 62.2483 3.62467 -96.6906
rradius 6.80817
rwrist 59.0377
rhand -18.5042 4.7038
rfingers 7.12502
rthumb 7.78369 -25.1329
lclavicle 6.06293e-015 1.90833e-014
lhumerus 63.7268 6.89642 106.93
lradius 10.4551
lwrist -81.4275
lhand -14.8622 0.85046
lfingers 7.12502
lthumb 11.2977 30.5262
rfemur -15.8901 -14.5086 13.0368
rtibia 60.5554
rfoot -15.4158 11.3824
rtoes -9.5584
lfemur -20.4202 8.6632 -7.52328
ltibia 61.8968
lfoot -23.6068 -12.5967
ltoes 1.6098
143
root 0.413292 16.0517 -1.00589 48.7435 -86.9412 -61.159
lowerback 34.0358 -3.29134 5.78988
upperback 1.93149 -2.71748 -2.01251
thorax -15.7084 -1.77992 -4.10777
lowerneck 5.35155 1.67087 -2.598
upperneck 0.822783 2.03997 0.272201
head -0.661745 0.997872 0.4692
rclavicle 9.93923e-017 -3.97569e-015
rhumerus 61.7852 3.60729 -96.8057
rradius 7.02809
rwrist 59.1821
rhand -18.4211 4.64162
rfingers 7.12502
rthumb 7.86393 -25.1921
lclavicle 9.93923e-017 -3.97569e-015
lhumerus 63.3979 7.16 107.22
lradius 10.5946
lwrist -81.4456
lhand -15.0552 0.752371
lfingers 7.12502
lthumb 11.1115 30.4382
rfemur -14.7438 -13.7633 13.4378
rtibia 58.2861
rfoot -15.6571 10.3014
rtoes -9.9003
lfemur -19.4657 7.59916 -7.91636
ltibia 59.9723
lfoot -23.5744 -11.2749
ltoes 1.34106
